<svg viewBox="0 0 700 160" xmlns="http://www.w3.org/2000/svg">
  <!-- ── Background ── -->
  <rect fill="#003399" height="160" rx="12" width="700" />

  <!-- ══════════════════════════════════════════════
       ICON  (scaled-down version of icon.svg @ 120×120, centered at 80,80)
  ══════════════════════════════════════════════ -->
  <g transform="translate(20,20) scale(0.234375)">
    <defs>
      <polygon fill="#FFCC00" id="ls"
               points="0,-13 3.29,-4.53 12.36,-4.02 5.33,1.73 7.64,10.52 0,5.6 -7.64,10.52 -5.33,1.73 -12.36,-4.02 -3.29,-4.53" />
    </defs>
    <circle cx="256" cy="256" fill="#003399" r="256" />
    <circle cx="256" cy="256" fill="none" r="241" stroke="#FFCC00" stroke-width="18" />
    <use href="#ls" transform="translate(256,46)" />
    <use href="#ls" transform="translate(361,74)" />
    <use href="#ls" transform="translate(438,151)" />
    <use href="#ls" transform="translate(466,256)" />
    <use href="#ls" transform="translate(438,361)" />
    <use href="#ls" transform="translate(361,438)" />
    <use href="#ls" transform="translate(256,466)" />
    <use href="#ls" transform="translate(151,438)" />
    <use href="#ls" transform="translate(74,361)" />
    <use href="#ls" transform="translate(46,256)" />
    <use href="#ls" transform="translate(74,151)" />
    <use href="#ls" transform="translate(151,74)" />
    <circle cx="256" cy="256" fill="#001F6B" r="148" stroke="#FFCC00" stroke-width="14" />
    <circle cx="256" cy="156" fill="#FFCC00" r="15" />
    <circle cx="256" cy="156" fill="#001F6B" r="6" />
    <circle cx="356" cy="256" fill="#FFCC00" r="15" />
    <circle cx="356" cy="256" fill="#001F6B" r="6" />
    <circle cx="256" cy="356" fill="#FFCC00" r="15" />
    <circle cx="256" cy="356" fill="#001F6B" r="6" />
    <circle cx="156" cy="256" fill="#FFCC00" r="15" />
    <circle cx="156" cy="256" fill="#001F6B" r="6" />
    <line stroke="#FFCC00" stroke-linecap="round" stroke-width="11" x1="256" x2="256" y1="220" y2="158" />
    <line stroke="#FFCC00" stroke-linecap="round" stroke-width="11" x1="287" x2="341" y1="238" y2="207" />
    <line stroke="#FFCC00" stroke-linecap="round" stroke-width="11" x1="287" x2="341" y1="274" y2="305" />
    <line stroke="#FFCC00" stroke-linecap="round" stroke-width="11" x1="256" x2="256" y1="292" y2="354" />
    <line stroke="#FFCC00" stroke-linecap="round" stroke-width="11" x1="225" x2="171" y1="274" y2="305" />
    <line stroke="#FFCC00" stroke-linecap="round" stroke-width="11" x1="225" x2="171" y1="238" y2="207" />
    <circle cx="256" cy="256" fill="#001F6B" r="36" stroke="#FFCC00" stroke-width="11" />
    <circle cx="256" cy="256" fill="#FFCC00" r="17" />
    <circle cx="256" cy="251" fill="#001F6B" r="6" />
    <rect fill="#001F6B" height="11" rx="2" width="8" x="252" y="253" />
  </g>

  <!-- ══════════════════════════════════════════════
       WORDMARK
  ══════════════════════════════════════════════ -->
  <!-- "Union" — white, light weight -->
  <text fill="#FFFFFF" font-family="'Segoe UI', Arial, sans-serif"
        font-size="62"
        font-weight="300" letter-spacing="-1" x="160"
        y="82">Union
  </text>

  <!-- "Vault" — gold, bold -->
  <text fill="#FFCC00" font-family="'Segoe UI', Arial, sans-serif"
        font-size="62"
        font-weight="700" letter-spacing="-1" x="160"
        y="140">Vault
  </text>

  <!-- ".eu" — gold, medium, superscript-style -->
  <text fill="#FFCC00" font-family="'Segoe UI', Arial, sans-serif"
        font-size="32"
        font-weight="500" x="390"
        y="82">.eu
  </text>

  <!-- Vertical divider -->
  <line opacity="0.5" stroke="#FFCC00" stroke-width="2" x1="450" x2="450" y1="30" y2="130" />

  <!-- Tagline -->
  <text fill="#FFFFFF" font-family="'Segoe UI', Arial, sans-serif"
        font-size="14"
        font-weight="400" letter-spacing="2.5" opacity="0.85"
        x="470" y="72">YOUR TRUSTED VAULT
  </text>
  <text fill="#FFCC00" font-family="'Segoe UI', Arial, sans-serif"
        font-size="14"
        font-weight="400" letter-spacing="2.5" opacity="0.9"
        x="470" y="96">OF EU FINANCIAL DATA
  </text>

  <!-- EU stars accent row under tagline -->
  <text fill="#FFCC00" font-family="'Segoe UI', Arial, sans-serif"
        font-size="11"
        letter-spacing="4" opacity="0.6"
        x="470" y="122">★ ★ ★ ★ ★ ★ ★
  </text>
</svg>
